<?xml version="1.0" standalone="no"?>
<!DOCTYPE svg PUBLIC "-//W3C//DTD SVG 20010904//EN"
 "http://www.w3.org/TR/2001/REC-SVG-20010904/DTD/svg10.dtd">
<svg version="1.0" xmlns="http://www.w3.org/2000/svg"
 width="123.000000pt" height="123.000000pt" viewBox="0 0 123.000000 123.000000"
 preserveAspectRatio="xMidYMid meet">

<g transform="translate(0.000000,123.000000) scale(0.100000,-0.100000)"
fill="#000000" stroke="none">
<path d="M481 1134 c-149 -40 -299 -162 -365 -296 -104 -211 -36 -344 194
-379 136 -20 124 -12 116 -76 -4 -31 -18 -84 -33 -117 -14 -34 -28 -79 -30
-102 -9 -77 36 -94 252 -94 216 0 261 17 252 94 -2 23 -16 68 -30 102 -15 33
-29 86 -33 117 -8 64 -20 56 114 76 265 40 325 219 152 453 -139 188 -379 279
-589 222z m251 -23 l23 -10 -22 0 c-38 -1 -84 -51 -89 -96 -17 -136 244 -250
386 -169 42 24 45 24 57 8 25 -34 53 -125 53 -170 0 -108 -75 -166 -250 -194
-84 -13 -466 -13 -548 0 -219 36 -288 121 -233 283 58 167 222 312 401 352 67
15 178 13 222 -4z m139 -52 c60 -32 179 -141 179 -163 0 -23 -35 -46 -83 -55
-169 -31 -367 119 -273 208 23 22 64 39 100 40 10 1 45 -13 77 -30z m-89 -682
c4 -31 19 -85 34 -120 40 -95 42 -121 8 -144 -25 -16 -50 -18 -209 -18 -253 0
-266 10 -201 162 14 34 29 83 32 110 3 26 7 54 10 61 3 10 40 12 161 10 l158
-3 7 -58z"/>
<path d="M392 1037 c-27 -28 -28 -49 -4 -70 38 -35 102 -9 102 40 0 25 -30 53
-57 53 -11 0 -29 -10 -41 -23z m72 -22 c6 -17 -19 -45 -40 -45 -17 0 -28 24
-20 45 7 19 52 20 60 0z"/>
<path d="M245 868 c-72 -40 -106 -112 -81 -172 18 -44 48 -60 99 -53 47 6 101
54 118 104 28 86 -59 164 -136 121z m90 -32 c14 -10 20 -26 20 -56 0 -36 -6
-47 -38 -76 -62 -57 -137 -39 -137 34 0 78 98 140 155 98z"/>
<path d="M644 720 c-32 -13 -54 -50 -54 -91 0 -87 102 -123 163 -58 70 75 -13
188 -109 149z m87 -41 c28 -28 22 -76 -13 -102 -23 -17 -31 -18 -57 -8 -34 14
-52 55 -40 88 16 44 75 57 110 22z"/>
<path d="M982 698 c-33 -42 -6 -108 44 -108 53 0 84 69 46 103 -22 20 -75 22
-90 5z m71 -29 c23 -37 -25 -68 -52 -35 -9 11 -10 20 -1 36 13 24 38 23 53 -1z"/>
</g>
</svg>
